<svg xmlns="http://www.w3.org/2000/svg" width="36" height="36" viewBox="0 0 36 36" fill="none">
<rect width="36" height="36" rx="18" fill="#FCFCFC"/>
<path fill-rule="evenodd" clip-rule="evenodd" d="M16.3333 16.3333C16.7936 16.3333 17.1667 16.7064 17.1667 17.1667V21.3333C17.1667 21.7936 16.7936 22.1667 16.3333 22.1667C15.8731 22.1667 15.5 21.7936 15.5 21.3333V17.1667C15.5 16.7064 15.8731 16.3333 16.3333 16.3333Z" fill="#6F767E"/>
<path fill-rule="evenodd" clip-rule="evenodd" d="M19.6667 16.3333C20.1269 16.3333 20.5 16.7064 20.5 17.1667V21.3333C20.5 21.7936 20.1269 22.1667 19.6667 22.1667C19.2064 22.1667 18.8333 21.7936 18.8333 21.3333V17.1667C18.8333 16.7064 19.2064 16.3333 19.6667 16.3333Z" fill="#6F767E"/>
<path fill-rule="evenodd" clip-rule="evenodd" d="M16.3333 9.66667C14.9526 9.66667 13.8333 10.786 13.8333 12.1667H11.3333H10.5C10.0398 12.1667 9.66666 12.5398 9.66666 13C9.66666 13.4602 10.0398 13.8333 10.5 13.8333H11.3333V23.8333C11.3333 25.214 12.4526 26.3333 13.8333 26.3333H22.1667C23.5474 26.3333 24.6667 25.214 24.6667 23.8333V13.8333H25.5C25.9602 13.8333 26.3333 13.4602 26.3333 13C26.3333 12.5398 25.9602 12.1667 25.5 12.1667H24.6667H22.1667C22.1667 10.786 21.0474 9.66667 19.6667 9.66667H16.3333ZM20.5 12.1667C20.5 11.7064 20.1269 11.3333 19.6667 11.3333H16.3333C15.8731 11.3333 15.5 11.7064 15.5 12.1667H20.5ZM13.8333 13.8333H13V23.8333C13 24.2936 13.3731 24.6667 13.8333 24.6667H22.1667C22.6269 24.6667 23 24.2936 23 23.8333V13.8333H22.1667H13.8333Z" fill="#6F767E"/>
</svg>
