<svg width="36" height="36" viewBox="0 0 36 36" fill="none" xmlns="http://www.w3.org/2000/svg">
<rect width="36" height="36" rx="18" fill="#FCFCFC"/>
<path fill-rule="evenodd" clip-rule="evenodd" d="M13.8333 9.66667C14.2936 9.66667 14.6667 10.0398 14.6667 10.5V11.3333H21.3333V10.5C21.3333 10.0398 21.7064 9.66667 22.1667 9.66667C22.6269 9.66667 23 10.0398 23 10.5V11.3333H23.8333C25.214 11.3333 26.3333 12.4526 26.3333 13.8333V23.8333C26.3333 25.2141 25.214 26.3333 23.8333 26.3333H12.1667C10.7859 26.3333 9.66666 25.2141 9.66666 23.8333V13.8333C9.66666 12.4526 10.7859 11.3333 12.1667 11.3333H13V10.5C13 10.0398 13.3731 9.66667 13.8333 9.66667ZM21.3333 13V13.8333C21.3333 14.2936 21.7064 14.6667 22.1667 14.6667C22.6269 14.6667 23 14.2936 23 13.8333V13H23.8333C24.2936 13 24.6667 13.3731 24.6667 13.8333V16.3333H11.3333V13.8333C11.3333 13.3731 11.7064 13 12.1667 13H13V13.8333C13 14.2936 13.3731 14.6667 13.8333 14.6667C14.2936 14.6667 14.6667 14.2936 14.6667 13.8333V13H21.3333ZM11.3333 18V23.8333C11.3333 24.2936 11.7064 24.6667 12.1667 24.6667H23.8333C24.2936 24.6667 24.6667 24.2936 24.6667 23.8333V18H11.3333Z" fill="#6F767E"/>
</svg>
