<svg width="20" height="20" viewBox="0 0 20 20" fill="none" xmlns="http://www.w3.org/2000/svg">
<path fill-rule="evenodd" clip-rule="evenodd" d="M10 16.6667C13.6819 16.6667 16.6667 13.6819 16.6667 10C16.6667 6.31811 13.6819 3.33334 10 3.33334C6.31812 3.33334 3.33335 6.31811 3.33335 10C3.33335 13.6819 6.31812 16.6667 10 16.6667ZM10 18.3333C14.6024 18.3333 18.3334 14.6024 18.3334 10C18.3334 5.39763 14.6024 1.66667 10 1.66667C5.39765 1.66667 1.66669 5.39763 1.66669 10C1.66669 14.6024 5.39765 18.3333 10 18.3333Z" fill="#9A9FA5"/>
<path fill-rule="evenodd" clip-rule="evenodd" d="M10 5C10.4603 5 10.8334 5.3731 10.8334 5.83333V9.65482L12.6726 11.4941C12.998 11.8195 12.998 12.3472 12.6726 12.6726C12.3472 12.998 11.8195 12.998 11.4941 12.6726L9.65484 10.8333C9.34228 10.5208 9.16669 10.0968 9.16669 9.65482V5.83333C9.16669 5.3731 9.53978 5 10 5Z" fill="#9A9FA5"/>
</svg>
