<svg width="36" height="36" viewBox="0 0 36 36" fill="none" xmlns="http://www.w3.org/2000/svg">
    <rect width="36" height="36" rx="18" fill="#FCFCFC"/>
    <path fill-rule="evenodd" clip-rule="evenodd" d="M20.1129 11.173C21.0893 10.1967 22.6722 10.1967 23.6485 11.173L24.827 12.3515C25.8033 13.3278 25.8033 14.9107 24.827 15.887L16.1666 24.5475C16.0502 24.6638 15.9021 24.7431 15.7407 24.7754L11.3213 25.6592C10.7382 25.7759 10.2241 25.2618 10.3407 24.6787L11.2246 20.2592C11.2569 20.0979 11.3362 19.9498 11.4525 19.8334L20.1129 11.173ZM22.47 12.3515L23.6485 13.53C23.9739 13.8555 23.9739 14.3831 23.6485 14.7085L22.47 15.887L20.1129 13.53L21.2915 12.3515C21.6169 12.0261 22.1445 12.0261 22.47 12.3515ZM18.9344 14.7085L12.8094 20.8335L12.2202 23.7798L15.1665 23.1905L21.2915 17.0656L18.9344 14.7085Z" fill="#6F767E"/>
</svg>
