<svg width="20" height="20" viewBox="0 0 20 20" fill="none" xmlns="http://www.w3.org/2000/svg">
<path fill-rule="evenodd" clip-rule="evenodd" d="M3 0C1.34315 0 0 1.34315 0 3V17C0 18.6569 1.34315 20 3 20H17C18.6569 20 20 18.6569 20 17V3C20 1.34315 18.6569 0 17 0H3ZM12 2H8V6H12V2ZM14 2V6H18V3C18 2.44771 17.5523 2 17 2H14ZM12 8H8V12H12V8ZM14 12V8H18V12H14ZM12 14H8V18H12V14ZM14 18V14H18V17C18 17.5523 17.5523 18 17 18H14ZM3 2H6V6H2V3C2 2.44772 2.44771 2 3 2ZM2 8H6V12H2V8ZM2 14H6V18H3C2.44772 18 2 17.5523 2 17V14Z" fill="#9A9FA5"/>
</svg>
