<svg width="20" height="20" viewBox="0 0 20 20" fill="none" xmlns="http://www.w3.org/2000/svg">
<path d="M6.66671 10C6.66671 10.9205 5.92052 11.6667 5.00004 11.6667C4.07957 11.6667 3.33337 10.9205 3.33337 10C3.33337 9.07954 4.07957 8.33334 5.00004 8.33334C5.92052 8.33334 6.66671 9.07954 6.66671 10Z" fill="#6F767E"/>
<path d="M11.6667 10C11.6667 10.9205 10.9205 11.6667 10 11.6667C9.07957 11.6667 8.33337 10.9205 8.33337 10C8.33337 9.07954 9.07957 8.33334 10 8.33334C10.9205 8.33334 11.6667 9.07954 11.6667 10Z" fill="#6F767E"/>
<path d="M16.6667 10C16.6667 10.9205 15.9205 11.6667 15 11.6667C14.0796 11.6667 13.3334 10.9205 13.3334 10C13.3334 9.07954 14.0796 8.33334 15 8.33334C15.9205 8.33334 16.6667 9.07954 16.6667 10Z" fill="#6F767E"/>
</svg>
